<svg width="32" height="32" viewBox="0 0 32 32" fill="none" xmlns="http://www.w3.org/2000/svg">
<rect width="32" height="32" rx="6" fill="#6B2FA0"/>
<g transform="translate(3, 8.5) scale(0.26)">
<path d="M47.6402 0.231241C49.1058 0.509902 50.9639 1.11181 52.0257 1.65799C57.923 4.71212 60.0119 11.5337 56.9074 17.5305C56.238 18.8012 55.5456 19.7933 54.2877 21.2646C51.968 23.9843 51.5525 24.4859 51.1601 25.1213C50.2484 26.5703 50.0176 28.376 50.5946 29.4907C50.987 30.2486 51.564 30.6945 52.5335 30.9843C53.5144 31.2741 54.3915 31.2184 55.2225 30.8171C60.0381 28.4225 61.2672 11.9479 61.5147 9.86175C61.6259 8.92413 61.8738 6.88397 62.113 4.92173C62.4391 2.24739 64.7958 0.233603 67.5839 0.240541C76.4555 0.26262 77.8523 0.306151 78.6051 0.443499C80.0708 0.722162 81.9289 1.32407 82.9906 1.87024C88.8879 4.92437 90.9768 11.746 87.8724 17.7428C87.203 19.0135 86.5105 20.0056 85.2526 21.4769C82.9329 24.1966 82.5174 24.6982 82.1251 25.3335C81.2133 26.7826 80.9825 28.5883 81.5596 29.7029C81.952 30.4609 82.9309 31.0832 83.4984 31.1966C83.9223 31.2812 90.1608 31.2394 95.3517 31.2128C97.9191 31.1997 100 33.2068 100 35.6865C100 38.1412 97.9589 40.1409 95.4176 40.1759L84.6063 40.325C80.4863 40.3139 77.3472 39.4672 75.0275 37.2825C70.4689 33.0023 69.9495 26.6377 73.7003 21.1982C74.035 20.7078 74.8659 19.6712 75.5353 18.8909C77.9704 16.0597 78.7321 14.8559 78.986 13.418C79.1475 12.504 79.0206 11.8241 78.5705 11.0995C77.5936 9.52698 74.3716 9.75803 72.1738 9.75803C70.9499 16.8856 70.3562 23.645 68.2314 30.5607C67.2158 33.1133 65.4543 35.5432 63.8617 37.0703C61.1958 39.6339 57.5768 40.325 53.6414 40.325C49.5213 40.3139 46.3822 39.255 44.0625 37.0703C39.5039 32.79 38.9846 26.4254 42.7353 20.9859C43.07 20.4955 43.901 19.4589 44.5703 18.6786C47.0054 15.8474 47.7671 14.6436 48.021 13.2057C48.1826 12.2917 48.0556 11.6118 47.6056 10.8872C46.6286 9.31467 43.4066 9.54573 41.2088 9.54573C41.2088 9.54573 40.0579 16.2487 39.2154 20.4286C38.8923 22.0226 38.0613 26.1356 37.3573 29.5687C36.6649 33.0018 36.1844 36.3501 35.9871 37.0703C34.869 41.1523 28.0329 41.8641 26.3634 37.0703C25.9595 35.9333 26.0518 35.1977 27.6098 27.3728C29.1563 19.548 30.1257 14.521 30.6104 11.8681C30.7436 11.1055 31.0374 9.58309 31.0374 9.58309L27.7554 9.56081H23.7854C22.4029 17.4699 20.7591 25.3481 19.1345 33.2136C18.5921 35.8553 18.3728 36.6913 18.0612 37.3378C17.5188 38.4747 16.7802 39.2215 15.7069 39.7343C14.9336 40.1021 14.7259 40.1578 13.7334 40.1913C13.0986 40.2247 12.36 40.1801 11.9907 40.1021C9.63642 39.6005 7.99763 37.4715 8.2169 35.1865C8.25153 34.7741 8.57467 33.0018 8.92089 31.2295C9.49793 28.3649 13.0409 10.642 13.2025 9.86175L13.2718 9.56081H8.63237C4.25842 9.56081 3.9699 9.54967 3.30054 9.32674C1.36169 8.70254 0.115284 7.1086 0.0114171 5.12453C-0.0578275 3.99874 0.184529 3.14046 0.830812 2.15957C1.47709 1.18983 2.33111 0.565634 3.55443 0.186655C4.15455 -0.00283504 5.32017 -0.0139811 25.3665 0.00831179C28.5273 0.0118431 30.52 0.0373916 32.8169 0.0411166C45.0207 0.0609076 46.766 0.0717674 47.6402 0.231241Z" fill="white"/>
</g>
</svg>
